<?xml version="1.0" encoding="UTF-8" standalone="no"?><!DOCTYPE svg PUBLIC "-//W3C//DTD SVG 1.1//EN" "http://www.w3.org/Graphics/SVG/1.1/DTD/svg11.dtd"><svg width="100%" height="100%" viewBox="0 0 32 32" version="1.1" xmlns="http://www.w3.org/2000/svg" xmlns:xlink="http://www.w3.org/1999/xlink" xml:space="preserve" style="fill-rule:evenodd;clip-rule:evenodd;stroke-linejoin:round;stroke-miterlimit:1.41421;"><g><path d="M0.513,26.121c0,0 0.009,4.057 4.053,4.451c0,0 2.128,0.859 2.875,-2.063c0,0 -0.818,-2.678 7.912,-4.621c0,0 5.928,-2.017 9.752,1.106l3.179,3.21c0,0 1.57,1.312 2.613,-1.853c0,0 1.147,-2.472 0.584,-5.172c0,0 -0.929,-2.982 -7.605,-2.03l-2.839,0.167c0,0 3.407,-1.296 4.421,-1.296c0,0 -1.884,-5.416 -0.987,-11.273c0,0 1.034,-3.156 -4.349,-4.322c0,0 -8.465,-1.79 -15.511,3.138c0,0 -2.614,0.95 -0.984,6.556c0,0 2.627,6.464 1.587,10.283l1.489,0.106c0,0 -6.119,1.416 -6.19,3.613Z"/><path d="M25.464,18.064c0,0 3.814,0.296 5.231,1.942c0,0 -2.361,-1.207 -9.496,-0.641c0,0 2.203,-1.113 4.265,-1.301Z" style="fill:#fff;"/><path d="M6.79,22.472l-1.646,-0.226c0,0 -3.714,1.119 -4.493,3.382c0,0 0.678,-1.744 6.139,-3.156Z" style="fill:#fff;"/></g></svg>