<?xml version="1.0" encoding="UTF-8" standalone="no"?><!DOCTYPE svg PUBLIC "-//W3C//DTD SVG 1.1//EN" "http://www.w3.org/Graphics/SVG/1.1/DTD/svg11.dtd"><svg width="100%" height="100%" viewBox="0 0 300 300" version="1.1" xmlns="http://www.w3.org/2000/svg" xmlns:xlink="http://www.w3.org/1999/xlink" xml:space="preserve" style="fill-rule:evenodd;clip-rule:evenodd;stroke-linecap:round;stroke-linejoin:round;stroke-miterlimit:1.5;"><circle cx="150.081" cy="150.327" r="146.496" style="fill:url(#_Radial1);"/><circle cx="99.341" cy="208.576" r="27.014" style="fill:#fff;"/><circle cx="214.127" cy="207.339" r="27.014" style="fill:#fff;"/><circle cx="214.255" cy="206.731" r="15.809" style="fill:#9bfdda;"/><circle cx="99.988" cy="207.969" r="15.809" style="fill:#9de4e8;"/><path d="M157.556,237.301c0,0 -12.582,37.09 -53.076,17.659" style="fill:none;stroke:#fff;stroke-width:8px;"/><path d="M157.231,237.301c0,0 12.581,37.09 53.075,17.659" style="fill:none;stroke:#fff;stroke-width:8px;"/><ellipse cx="158.265" cy="230.605" rx="13.493" ry="7.238" style="fill:#fff;"/><g><path d="M58.491,165.792c0,0 0.05,23.315 23.294,25.58c0,0 12.229,4.932 16.519,-11.859c0,0 -4.698,-15.393 45.471,-26.556c0,0 34.067,-11.591 56.045,6.357l18.269,18.448c0,0 9.019,7.539 15.014,-10.652c0,0 6.596,-14.207 3.359,-29.722c0,0 -5.34,-17.138 -43.708,-11.669l-16.313,0.963c0,0 19.577,-7.446 25.408,-7.446c0,0 -10.828,-31.129 -5.676,-64.789c0,0 5.943,-18.133 -24.99,-24.837c0,0 -48.65,-10.284 -89.143,18.035c0,0 -15.02,5.459 -5.655,37.675c0,0 15.097,37.147 9.124,59.097l8.553,0.607c0,0 -35.161,8.14 -35.571,20.768Z" style="fill:#fff;"/><path d="M201.88,119.488c0,0 21.923,1.697 30.061,11.158c0,0 -13.564,-6.936 -54.572,-3.681c0,0 12.662,-6.396 24.511,-7.477Z" style="fill:#a9f4df;"/><path d="M94.566,144.817l-9.462,-1.298c0,0 -21.34,6.435 -25.819,19.437c0,0 3.894,-10.02 35.281,-18.139Z" style="fill:#9cebe4;"/></g><g transform="matrix(0.98993,-0.141556,0.141556,0.98993,7.41805,-41.9284)"><text x="87.472px" y="170.564px" style="font-family:'ShorelinesScriptBold', 'Shorelines Script Bold';font-size:45px;fill:#c0e4e7;">KH</text></g><path d="M177.199,40.197l2.549,11.039l11.286,0.988l-9.711,5.835l2.548,11.039l-8.55,-7.433l-9.711,5.835l4.427,-10.429l-8.551,-7.432l11.286,0.987l4.427,-10.429Z" style="fill:#adf0e1;stroke:#fff;stroke-width:0.9px;"/><defs><radialGradient id="_Radial1" cx="0" cy="0" r="1" gradientUnits="userSpaceOnUse" gradientTransform="matrix(245.159,-222.859,222.859,245.159,-6.25535,274.11)"><stop offset="0" style="stop-color:#a5b9ff;stop-opacity:1"/><stop offset="0.58" style="stop-color:#98ffd9;stop-opacity:1"/><stop offset="0.81" style="stop-color:#aef0e1;stop-opacity:1"/><stop offset="1" style="stop-color:#ffb8fe;stop-opacity:1"/></radialGradient></defs></svg>