<?xml version="1.0" encoding="UTF-8" standalone="no"?><!DOCTYPE svg PUBLIC "-//W3C//DTD SVG 1.1//EN" "http://www.w3.org/Graphics/SVG/1.1/DTD/svg11.dtd"><svg width="100%" height="100%" viewBox="0 0 300 300" version="1.1" xmlns="http://www.w3.org/2000/svg" xmlns:xlink="http://www.w3.org/1999/xlink" xml:space="preserve" style="fill-rule:evenodd;clip-rule:evenodd;stroke-linecap:round;stroke-linejoin:round;stroke-miterlimit:1.5;"><circle cx="150.202" cy="150.236" r="142.213" style="stroke:#000;stroke-width:8.5px;"/><circle cx="93.274" cy="212.534" r="28.01" style="fill:#fff;stroke:#000;stroke-width:0.4px;"/><circle cx="212.297" cy="211.25" r="28.01" style="fill:#fff;stroke:#000;stroke-width:0.4px;"/><circle cx="212.429" cy="210.62" r="16.392"/><circle cx="93.945" cy="211.904" r="16.392"/><path d="M153.637,242.318c0,0 -13.045,38.459 -55.034,18.311" style="fill:none;stroke:#fff;stroke-width:8px;"/><path d="M153.3,242.318c0,0 13.046,38.459 55.035,18.311" style="fill:none;stroke:#fff;stroke-width:8px;"/><ellipse cx="154.373" cy="235.375" rx="13.991" ry="7.505" style="fill:#fff;"/><g><path d="M50.917,168.17c0,0 0.052,24.175 24.153,26.524c0,0 12.681,5.114 17.129,-12.296c0,0 -4.871,-15.961 47.148,-27.536c0,0 35.325,-12.019 58.114,6.591l18.943,19.129c0,0 9.352,7.818 15.568,-11.045c0,0 6.84,-14.731 3.483,-30.818c0,0 -5.537,-17.771 -45.32,-12.1l-16.915,0.998c0,0 20.299,-7.721 26.345,-7.721c0,0 -11.228,-32.277 -5.885,-67.179c0,0 6.162,-18.803 -25.913,-25.755c0,0 -50.445,-10.663 -92.433,18.701c0,0 -15.574,5.661 -5.863,39.066c0,0 15.655,38.517 9.46,61.278l8.87,0.629c0,0 -36.459,8.441 -36.884,21.534Z" style="fill:#fff;"/><path d="M199.597,120.158c0,0 22.733,1.759 31.171,11.569c0,0 -14.065,-7.191 -56.587,-3.817c0,0 13.13,-6.632 25.416,-7.752Z"/><path d="M88.323,146.422l-9.812,-1.347c0,0 -22.127,6.673 -26.771,20.154c0,0 4.038,-10.389 36.583,-18.807Z"/></g><g transform="matrix(0.98993,-0.141556,0.141556,0.98993,7.57177,-42.8569)"><text x="82.814px" y="169.02px" style="font-family:'ShorelinesScriptBold', 'Shorelines Script Bold';font-size:45px;">KH</text></g><path d="M174.006,37.941l2.642,11.446l11.703,1.024l-10.07,6.05l2.643,11.447l-8.866,-7.707l-10.069,6.05l4.59,-10.813l-8.866,-7.707l11.702,1.023l4.591,-10.813Z" style="stroke:#fff;stroke-width:0.9px;"/></svg>