<?xml version="1.0" encoding="UTF-8" standalone="no"?><!DOCTYPE svg PUBLIC "-//W3C//DTD SVG 1.1//EN" "http://www.w3.org/Graphics/SVG/1.1/DTD/svg11.dtd"><svg width="100%" height="100%" viewBox="0 0 16 16" version="1.1" xmlns="http://www.w3.org/2000/svg" xmlns:xlink="http://www.w3.org/1999/xlink" xml:space="preserve" style="fill-rule:evenodd;clip-rule:evenodd;stroke-linejoin:round;stroke-miterlimit:1.41421;"><g><path d="M0.234,12.95c0,0 0.005,2.019 2.018,2.215c0,0 1.059,0.427 1.43,-1.027c0,0 -0.407,-1.333 3.938,-2.3c0,0 2.95,-1.004 4.854,0.551l1.582,1.597c0,0 0.781,0.653 1.3,-0.922c0,0 0.571,-1.231 0.291,-2.574c0,0 -0.462,-1.485 -3.785,-1.011l-1.413,0.083c0,0 1.695,-0.644 2.2,-0.644c0,0 -0.937,-2.696 -0.491,-5.611c0,0 0.515,-1.571 -2.164,-2.151c0,0 -4.214,-0.891 -7.72,1.562c0,0 -1.301,0.472 -0.49,3.262c0,0 1.307,3.217 0.79,5.118l0.741,0.053c0,0 -3.045,0.705 -3.081,1.799Z"/><path d="M12.652,8.94c0,0 1.899,0.146 2.603,0.966c0,0 -1.174,-0.601 -4.726,-0.319c0,0 1.097,-0.554 2.123,-0.647Z" style="fill:#fff;"/><path d="M3.358,11.133l-0.819,-0.112c0,0 -1.848,0.557 -2.236,1.683c0,0 0.337,-0.868 3.055,-1.571Z" style="fill:#fff;"/></g></svg>